<?xml version="1.0" encoding="UTF-8" standalone="no"?>
<!-- Created with Inkscape (http://www.inkscape.org/) -->

<svg
   version="1.1"
   id="svg1"
   width="765.97998"
   height="405.91336"
   viewBox="0 0 765.97998 405.91336"
   sodipodi:docname="symplectus_logo_temiz.svg"
   inkscape:version="1.4.2 (f4327f4, 2025-05-13)"
   xmlns:inkscape="http://www.inkscape.org/namespaces/inkscape"
   xmlns:sodipodi="http://sodipodi.sourceforge.net/DTD/sodipodi-0.dtd"
   xmlns="http://www.w3.org/2000/svg"
   xmlns:svg="http://www.w3.org/2000/svg">
  <defs
     id="defs1" />
  <sodipodi:namedview
     id="namedview1"
     pagecolor="#ffffff"
     bordercolor="#000000"
     borderopacity="0.25"
     inkscape:showpageshadow="2"
     inkscape:pageopacity="0.0"
     inkscape:pagecheckerboard="true"
     inkscape:deskcolor="#d1d1d1"
     showgrid="false"
     inkscape:zoom="1.9836385"
     inkscape:cx="359.69255"
     inkscape:cy="195.34809"
     inkscape:window-width="2560"
     inkscape:window-height="1369"
     inkscape:window-x="-8"
     inkscape:window-y="-8"
     inkscape:window-maximized="1"
     inkscape:current-layer="g1" />
  <g
     inkscape:groupmode="layer"
     inkscape:label="Image"
     id="g1"
     transform="translate(-65.010019,-213.04332)">
    <path
       style="fill:#ffffff"
       d="m 206.39688,618.41833 c 0.21945,-0.28875 0.57429,-0.8625 0.78852,-1.275 0.65589,-1.26289 12.83106,-26.93063 12.91944,-27.23681 0.10003,-0.34657 -0.0864,-0.8475 -0.51454,-1.38233 -0.16252,-0.20302 -0.29549,-0.39478 -0.29549,-0.42613 0,-0.0313 1.80761,-0.0452 4.0169,-0.0309 l 4.0169,0.0261 6.16479,13.9 c 3.39064,7.645 6.32696,14.21803 6.52516,14.60674 0.19821,0.38871 0.60683,1.07496 0.90807,1.525 l 0.54769,0.81826 h -4.47747 -4.47747 l 0.0433,-0.425 c 0.0688,-0.67572 -0.22364,-1.4827 -1.92049,-5.3 l -1.58914,-3.575 h -7.41336 -7.41336 l -1.83544,3.825 -1.83545,3.825 -0.005,0.82457 -0.005,0.82457 -2.27346,4.3e-4 -2.27347,4.3e-4 z m 21.26314,-12 c -0.74437,-1.75968 -5.70619,-12.7741 -5.75326,-12.77125 -0.0488,0.003 -3.97708,8.15776 -5.93085,12.31189 l -0.3689,0.78436 h 6.09524 6.09524 z m 15.43479,12.48329 c 0,-0.0229 0.0933,-0.25919 0.20733,-0.525 0.11404,-0.26581 0.29372,-0.84329 0.3993,-1.28329 0.1841,-0.76723 0.19197,-1.32234 0.19197,-13.55 0,-12.24871 -0.008,-12.78145 -0.19283,-13.55 -0.10606,-0.44 -0.25785,-0.9575 -0.33732,-1.15 -0.0795,-0.1925 -0.17587,-0.4527 -0.21423,-0.57821 l -0.0697,-0.22822 12.98276,0.0303 c 12.055,0.0281 13.0251,0.0429 13.57527,0.2065 1.33937,0.39832 2.24684,1.1473 2.81085,2.31993 0.58729,1.22103 0.64674,1.87336 0.64588,7.0878 -4.2e-4,2.58678 -0.0449,4.89732 -0.10122,5.2619 -0.32169,2.0812 -1.36569,3.44023 -3.09333,4.02678 l -0.65469,0.22228 -9.17948,0.029 -9.17947,0.029 0.0295,4.82152 0.0295,4.82152 0.30794,0.85 c 0.16937,0.4675 0.34294,0.92875 0.3857,1.025 0.0734,0.16516 -0.16456,0.175 -4.23294,0.175 -2.37089,0 -4.3107,-0.0188 -4.3107,-0.0417 z m 21.39471,-14.95549 c 0.71694,-0.10362 1.05777,-0.30814 1.35529,-0.81325 0.19302,-0.32769 0.2,-0.5194 0.2,-5.48955 0,-4.97015 -0.007,-5.16186 -0.2,-5.48955 -0.11,-0.18675 -0.32703,-0.43425 -0.48228,-0.55 -0.27992,-0.20868 -0.34184,-0.21068 -7.375,-0.23741 l -7.09272,-0.027 v 6.35196 6.35196 l 6.475,-0.002 c 3.56125,-10e-4 6.76512,-0.0439 7.11971,-0.0952 z m 13.39369,13.9722 0.3616,-1.025 v -13.35 -13.35 l -0.33164,-0.95 c -0.1824,-0.5225 -0.35538,-1.0077 -0.3844,-1.07821 -0.0428,-0.10399 2.40047,-0.1225 12.93164,-0.0979 14.2718,0.0333 13.38941,-0.005 14.64483,0.63143 1.10833,0.56163 1.94117,1.81874 2.24015,3.38135 0.22481,1.17496 0.21788,10.13807 -0.009,11.24258 -0.3936,1.91872 -1.36066,3.07057 -3.07047,3.65718 -0.61402,0.21066 -0.73078,0.21354 -9.80094,0.24188 l -9.17951,0.0287 0.0296,4.77152 0.0296,4.77152 0.33154,0.95 c 0.18235,0.5225 0.35481,1.00625 0.38324,1.075 0.0409,0.0989 -0.84639,0.125 -4.24324,0.125 h -4.29493 z m 21.7273,-14.15442 c 0.92229,-0.45435 1.02172,-1.17774 0.95812,-6.97058 -0.0461,-4.1958 -0.0715,-4.44084 -0.51267,-4.93789 -0.46173,-0.5202 -0.33842,-0.51211 -7.80794,-0.51211 h -6.95321 v 6.28333 c 0,3.45584 0.0323,6.3156 0.0717,6.35504 0.0394,0.0394 3.15568,0.0582 6.925,0.0417 l 6.8533,-0.03 z m 12.53645,14.57394 c 0.58543,-1.49385 0.55962,-0.75505 0.5274,-15.09452 l -0.0296,-13.15 -0.31205,-0.85 c -0.17163,-0.4675 -0.3452,-0.92875 -0.3857,-1.025 -0.0695,-0.1651 0.17023,-0.175 4.23705,-0.175 2.37089,0 4.3107,0.0283 4.3107,0.0629 0,0.0346 -0.10954,0.36656 -0.24341,0.7377 -0.57486,1.59378 -0.55654,1.11503 -0.55654,14.54518 v 12.35422 h 7.57762 c 7.53752,0 8.39764,-0.0311 10.00784,-0.36149 0.4045,-0.083 0.75008,-0.1363 0.76795,-0.11843 0.0179,0.0179 -0.0844,0.85316 -0.22723,1.8562 l -0.25973,1.82372 h -12.82579 -12.8258 z m 28.20421,0.43048 c 0.0428,-0.0963 0.21633,-0.5575 0.3857,-1.025 l 0.30794,-0.85 v -13.35 -13.35 l -0.31617,-0.9 c -0.1739,-0.495 -0.34746,-0.97875 -0.3857,-1.075 -0.0656,-0.16504 0.17624,-0.175 4.24791,-0.175 h 4.31744 l -0.0687,0.225 c -0.0378,0.12375 -0.13374,0.3825 -0.21321,0.575 -0.0795,0.1925 -0.23126,0.71 -0.33732,1.15 -0.18525,0.76855 -0.19283,1.30129 -0.19283,13.55 0,12.22766 0.008,12.78277 0.19197,13.55 0.10558,0.44 0.28526,1.01748 0.3993,1.28329 0.11403,0.26581 0.20733,0.50206 0.20733,0.525 0,0.0229 -1.93981,0.0417 -4.3107,0.0417 -4.06838,0 -4.30633,-0.01 -4.23294,-0.175 z m 13.33204,-0.85 0.3616,-1.025 v -13.35 -13.35 l -0.3166,-0.9 c -0.17413,-0.495 -0.3477,-0.97875 -0.3857,-1.075 -0.0656,-0.1661 0.56937,-0.175 12.4916,-0.175 6.90839,0 12.56306,0.0113 12.56594,0.025 0.0737,0.35159 0.56001,3.63436 0.54167,3.65629 -0.0144,0.0172 -0.35708,-0.0475 -0.76154,-0.14389 -0.66247,-0.15782 -1.54579,-0.1787 -8.91037,-0.21066 l -8.175,-0.0355 v 5.10942 5.10942 l 7.825,-0.0372 c 4.92932,-0.0235 7.95452,-0.0751 8.175,-0.13962 0.1925,-0.0563 0.45125,-0.13485 0.575,-0.17455 l 0.225,-0.0722 v 1.95674 c 0,1.07621 -0.0338,1.95674 -0.075,1.95674 -0.0413,0 -0.39002,-0.0667 -0.775,-0.14826 -0.58308,-0.12351 -1.97316,-0.14856 -8.32496,-0.15 l -7.62504,-0.002 v 5.5 5.5 h 7.42762 c 7.37888,0 8.34762,-0.0353 9.85543,-0.35959 0.40318,-0.0867 0.75189,-0.13881 0.7749,-0.11579 0.023,0.023 -0.0793,0.85938 -0.22733,1.85861 l -0.26918,1.81677 h -12.66732 -12.66732 z m 29.3116,0.967 c 0,-0.0319 0.12981,-0.42578 0.28846,-0.87528 0.15866,-0.44951 0.33866,-1.14077 0.4,-1.53616 0.1542,-0.99382 0.15668,-24.85135 0.003,-25.84385 -0.0599,-0.38588 -0.23987,-1.08919 -0.4,-1.56291 -0.16013,-0.47373 -0.29114,-0.89932 -0.29114,-0.94577 0,-0.0464 5.83875,-0.0717 12.975,-0.0561 l 12.975,0.0284 0.7,0.23389 c 1.73475,0.57963 2.66258,1.65265 3.12278,3.61143 0.1639,0.69765 0.17722,1.56961 0.17722,11.60433 0,10.11717 -0.0122,10.90206 -0.18089,11.62081 -0.47773,2.03571 -1.64506,3.23017 -3.55174,3.63427 -0.5551,0.11765 -2.81642,0.14174 -13.44237,0.14318 -7.02625,9.6e-4 -12.775,-0.0244 -12.775,-0.0563 z m 22.1,-3.39368 c 0.22203,-0.12794 0.44141,-0.38387 0.6,-0.7 l 0.25,-0.49832 v -10.8 -10.8 l -0.22069,-0.47796 c -0.17425,-0.3774 -0.311,-0.51895 -0.65,-0.6728 -0.41222,-0.18709 -0.70692,-0.19494 -7.40431,-0.19704 l -6.975,-0.002 v 12.13333 c 0,6.67334 0.0315,12.16478 0.0699,12.20322 0.0384,0.0384 3.19968,0.0572 7.025,0.0417 6.76505,-0.0274 6.96468,-0.0337 7.30512,-0.22989 z m 25.75251,3.32668 c -0.0739,-0.22419 -0.56874,-3.4921 -0.53402,-3.52682 0.0186,-0.0186 0.33001,0.0283 0.69208,0.10423 1.52858,0.32041 2.81929,0.35934 10.88943,0.32843 7.55634,-0.029 8.07041,-0.042 8.38288,-0.21248 0.64469,-0.35179 0.66712,-0.50202 0.66712,-4.46836 0,-3.96634 -0.0224,-4.11657 -0.66712,-4.46836 -0.31129,-0.16986 -0.85184,-0.18522 -8.33288,-0.2369 -8.49164,-0.0587 -8.26169,-0.045 -9.26074,-0.55052 -0.68909,-0.34868 -1.02207,-0.67043 -1.37062,-1.32438 -0.64966,-1.21888 -0.66864,-1.41819 -0.66864,-7.01984 0,-4.51586 0.0187,-5.11875 0.17668,-5.7 0.50933,-1.87384 1.52359,-2.96291 3.23081,-3.4691 0.54667,-0.16208 1.45189,-0.1781 11.70124,-0.20696 l 11.10874,-0.0313 0.30502,1.82867 c 0.16777,1.00578 0.29226,1.84276 0.27664,1.85997 -0.0156,0.0172 -0.3593,-0.0476 -0.76376,-0.14411 -0.66496,-0.15862 -1.5606,-0.17877 -9.35364,-0.21045 -9.76155,-0.0397 -9.18527,-0.0832 -9.54112,0.7212 -0.18988,0.42927 -0.19943,0.62956 -0.17087,3.58302 0.0274,2.83095 0.0476,3.15482 0.21304,3.40704 0.41185,0.62802 0.12824,0.60674 8.86722,0.66507 7.88299,0.0526 7.95493,0.0549 8.53511,0.27309 1.49142,0.56085 2.15038,1.38708 2.50804,3.14463 0.22375,1.09953 0.22944,10.8702 0.007,11.92046 -0.42432,2.00291 -1.67455,3.32011 -3.52311,3.71183 -0.93905,0.19899 -23.30917,0.21998 -23.37447,0.0219 z m 35.76835,-0.0275 c -1.81477,-0.39407 -2.85307,-1.37513 -3.43697,-3.24749 l -0.23389,-0.75001 v -11.25 c 0,-10.60809 0.0105,-11.28709 0.18342,-11.9 0.38441,-1.36228 1.18932,-2.45478 2.17749,-2.95553 1.21081,-0.61356 0.67636,-0.58559 11.85527,-0.62051 l 10.21618,-0.0319 0.0569,0.27897 c 0.14387,0.70509 0.56553,3.3575 0.5381,3.38492 -0.0169,0.0169 -0.52498,-0.0548 -1.12906,-0.15946 -1.01015,-0.17492 -1.68392,-0.19045 -8.39176,-0.19334 -7.14493,-0.003 -7.30202,10e-4 -7.7157,0.20128 -0.28307,0.13703 -0.48303,0.32658 -0.60657,0.575 -0.1757,0.35329 -0.1843,0.88372 -0.1843,11.37058 0,10.8021 0.004,11.00708 0.2,11.3937 0.12899,0.25392 0.34201,0.46694 0.6,0.6 0.3908,0.20155 0.55763,0.20701 7.25,0.23733 6.83127,0.0309 8.19134,-0.0146 9.66555,-0.32362 0.51749,-0.10847 0.63445,-0.10912 0.63445,-0.003 0,0.0712 -0.11204,0.84198 -0.24898,1.71279 -0.13693,0.87082 -0.24943,1.63955 -0.25,1.7083 -0.002,0.1918 -20.29157,0.16544 -21.18016,-0.0275 z m 25.23713,-0.42864 c 0.62908,-1.55746 0.58528,-0.54928 0.61988,-14.26885 0.0207,-8.22051 -0.004,-12.76754 -0.0719,-13.28146 -0.0569,-0.4298 -0.239,-1.18611 -0.4047,-1.68069 -0.1657,-0.49458 -0.30127,-0.94168 -0.30127,-0.99355 0,-0.0576 1.65427,-0.0943 4.25,-0.0943 2.3375,0 4.25,0.0366 4.25,0.0812 0,0.0447 -0.13135,0.46982 -0.29189,0.94475 -0.16053,0.47494 -0.34328,1.19213 -0.4061,1.59376 -0.0824,0.52704 -0.10556,4.25046 -0.0831,13.38025 l 0.0311,12.65 0.375,1.08329 c 0.20625,0.59582 0.375,1.10207 0.375,1.125 0,0.0229 -1.92977,0.0417 -4.28838,0.0417 h -4.28837 z m 12.84201,0.52314 c 0,-0.0319 0.12981,-0.42578 0.28846,-0.87528 0.15866,-0.44951 0.33866,-1.14077 0.4,-1.53616 0.14939,-0.96279 0.15567,-24.89929 0.007,-25.81687 -0.0568,-0.34996 -0.23645,-1.05212 -0.39924,-1.56034 -0.1628,-0.50822 -0.296,-0.95313 -0.296,-0.98869 0,-0.0356 5.62641,-0.0647 12.50314,-0.0647 9.91149,0 12.5126,0.0259 12.54879,0.125 0.0771,0.21119 0.55659,3.49981 0.51615,3.54026 -0.0209,0.0209 -0.3485,-0.0381 -0.72803,-0.13116 -0.61284,-0.15022 -1.61042,-0.17326 -8.91597,-0.20596 l -8.22592,-0.0368 0.0259,5.07935 0.0259,5.07934 h 7.8 c 6.95986,0 7.86193,-0.0178 8.375,-0.16551 l 0.575,-0.1655 v 1.953 1.95301 l -0.325,-0.0728 c -0.17875,-0.04 -0.505,-0.11119 -0.725,-0.15815 -0.22,-0.047 -3.85375,-0.0873 -8.075,-0.0897 l -7.67518,-0.004 v 5.50544 5.50544 l 8.025,-0.0386 c 7.75884,-0.0373 8.05795,-0.0457 9.01859,-0.25352 0.54647,-0.11822 1.01495,-0.19359 1.04106,-0.16748 0.0418,0.0418 -0.30238,2.64288 -0.44636,3.37369 l -0.0542,0.275 h -12.64204 c -6.95313,3e-5 -12.64205,-0.0261 -12.64205,-0.058 z m 29.6,0.0163 c 0,-0.0229 0.0933,-0.25919 0.20733,-0.525 0.11404,-0.26581 0.29372,-0.84329 0.3993,-1.28329 0.18409,-0.76716 0.192,-1.3238 0.19267,-13.559 6.8e-4,-12.47986 -0.004,-12.77631 -0.20154,-13.55 -0.11123,-0.43505 -0.29123,-1.02894 -0.4,-1.31975 -0.10877,-0.29081 -0.19776,-0.54999 -0.19776,-0.57594 0,-0.026 2.212,-0.0355 4.91555,-0.0213 l 4.91554,0.0259 8.03938,12.45 c 4.42166,6.8475 8.23953,12.765 8.48416,13.15 l 0.44477,0.7 -0.0247,-12.15 -0.0247,-12.15 -0.30794,-0.85 c -0.16937,-0.4675 -0.34294,-0.92875 -0.3857,-1.025 -0.0729,-0.16412 0.0806,-0.175 2.46954,-0.175 h 2.5473 l -0.3616,1.025 -0.3616,1.025 -0.0263,14.425 -0.0263,14.425 h -4.47497 -4.47497 l -8.2487,-12.86277 c -4.53679,-7.07452 -8.39445,-13.09327 -8.57257,-13.375 l -0.32386,-0.51223 0.0239,12.35 0.0239,12.35 0.3616,1.025 0.3616,1.025 h -2.4866 c -1.36763,0 -2.4866,-0.0188 -2.4866,-0.0417 z m 39.42086,-0.1108 c -1.84522,-0.40068 -2.92683,-1.4701 -3.48679,-3.44749 -0.17377,-0.61364 -0.18407,-1.27379 -0.18407,-11.8 0,-10.41091 0.0119,-11.19309 0.17923,-11.8 0.51955,-1.88417 1.52521,-2.96476 3.22826,-3.46877 0.54453,-0.16115 1.41993,-0.17794 10.80951,-0.20727 9.7464,-0.0304 10.21938,-0.0237 10.26876,0.14706 0.098,0.33886 0.5754,3.45116 0.53549,3.49106 -0.022,0.022 -0.39575,-0.0392 -0.83061,-0.13606 -0.71723,-0.15968 -1.50717,-0.17602 -8.50826,-0.17602 -7.68928,0 -7.71866,7.7e-4 -8,0.21045 -0.15531,0.11575 -0.37238,0.36325 -0.48238,0.55 -0.19673,0.334 -0.2,0.5194 -0.2,11.33955 0,10.92088 10e-4,11.00283 0.20645,11.39355 0.12814,0.24426 0.35574,0.47186 0.6,0.6 0.38472,0.20182 0.5473,0.20715 7.24355,0.2378 6.83437,0.0313 8.18728,-0.0141 9.66555,-0.32394 0.57399,-0.12031 0.63432,-0.11747 0.63308,0.0298 -7.5e-4,0.0895 -0.11229,0.88279 -0.24786,1.76279 -0.13558,0.88 -0.24746,1.63375 -0.24863,1.675 -10e-4,0.0412 -4.62589,0.0714 -10.27714,0.067 -8.28901,-0.006 -10.3966,-0.0344 -10.90414,-0.14456 z m 25.10998,-0.0225 c 0.0298,-0.0963 0.16746,-0.49 0.30592,-0.875 0.13846,-0.385 0.299,-0.9925 0.35674,-1.35 0.14148,-0.87592 0.1452,-25.10225 0.004,-25.97237 -0.0555,-0.34231 -0.23521,-1.01695 -0.39924,-1.49922 -0.16403,-0.48227 -0.29824,-0.91095 -0.29824,-0.95263 0,-0.0417 5.63953,-0.0758 12.53229,-0.0758 h 12.53228 l 0.27577,1.80861 c 0.15167,0.99474 0.25641,1.82797 0.23276,1.85162 -0.0236,0.0237 -0.35352,-0.0331 -0.73305,-0.12613 -0.61284,-0.15022 -1.61042,-0.17326 -8.91597,-0.20596 l -8.22592,-0.0368 0.0259,5.07935 0.0259,5.07934 7.85,-0.004 c 6.82327,-0.003 7.91867,-0.0244 8.375,-0.16035 l 0.525,-0.15644 v 1.93535 c 0,1.06444 -0.0113,1.93535 -0.025,1.93535 -0.0138,0 -0.34002,-0.0667 -0.725,-0.14826 -0.58332,-0.12356 -1.97907,-0.14856 -8.37581,-0.15 l -7.67586,-0.002 0.0259,5.475 0.0258,5.475 7.95,-0.002 c 7.81096,-0.002 7.96825,-0.006 8.99354,-0.22313 0.57394,-0.12135 1.06489,-0.19927 1.09099,-0.17317 0.0465,0.0465 -0.35173,3.12935 -0.44873,3.4738 -0.0466,0.16549 -0.73733,0.175 -12.7042,0.175 -12.00628,0 -12.65215,-0.009 -12.60076,-0.175 z m 29.23257,-1.5 c -0.14568,-0.92125 -0.26455,-1.74574 -0.26414,-1.83221 6.5e-4,-0.13991 0.11347,-0.13476 1.02573,0.0468 0.98411,0.19586 1.37622,0.20413 9.82933,0.20721 8.24627,0.003 8.8214,-0.008 9.07361,-0.17318 0.63089,-0.41328 0.62206,-0.35053 0.62206,-4.41916 0,-4.07532 -0.019,-4.22197 -0.58909,-4.53417 -0.28316,-0.15508 -1.02491,-0.1749 -8.31091,-0.22209 -7.97416,-0.0516 -8.00217,-0.0525 -8.67079,-0.27772 -1.50842,-0.508 -2.28086,-1.55379 -2.5822,-3.49594 -0.0695,-0.44766 -0.0963,-2.42795 -0.0757,-5.58409 l 0.0319,-4.89044 0.27494,-0.81608 c 0.64636,-1.91861 1.91402,-2.88899 4.09868,-3.13748 0.60421,-0.0687 4.53373,-0.0949 11.37318,-0.0757 l 10.45,0.0293 0.29037,1.7763 c 0.1597,0.97697 0.26772,1.79894 0.24005,1.82662 -0.0277,0.0277 -0.36084,-0.0257 -0.74037,-0.11852 -0.61434,-0.15031 -1.63904,-0.17269 -9.34005,-0.204 -9.75496,-0.0397 -9.14749,-0.0854 -9.55,0.7196 -0.18644,0.37288 -0.2,0.6 -0.2,3.35 0,3.14963 0.0404,3.4682 0.49341,3.89381 0.1686,0.15839 0.43642,0.24885 0.9221,0.31144 0.37647,0.0485 3.92449,0.0903 7.88449,0.093 7.92459,0.005 7.91426,0.005 9.07083,0.62096 0.88995,0.47434 1.36923,1.15697 1.7468,2.48797 0.16667,0.58751 0.18237,1.12503 0.18237,6.24286 0,5.05338 -0.0173,5.66345 -0.17756,6.25 -0.39876,1.45975 -1.14832,2.47922 -2.20396,2.99759 -1.2495,0.61356 -0.92137,0.59877 -13.32934,0.60067 l -11.31087,0.002 z M 66.26582,555.91998 c -0.140433,-0.61815 -1.294821,-8.18618 -1.254784,-8.22622 0.02547,-0.0255 0.718491,0.0846 1.54004,0.24462 1.912884,0.37258 3.574854,0.57992 5.643726,0.70411 2.185682,0.13121 35.952508,0.13352 37.091768,0.003 1.94321,-0.2234 2.63319,-0.76676 3.07756,-2.42356 0.14874,-0.5546 0.17276,-1.46536 0.20509,-7.77815 0.0382,-7.45186 0.004,-8.29508 -0.3813,-9.39607 -0.32637,-0.93277 -0.75306,-1.34567 -1.73428,-1.67825 -0.47144,-0.15979 -1.79893,-0.17678 -18.058838,-0.23104 -17.366244,-0.058 -17.561517,-0.0608 -18.65,-0.2713 -2.679303,-0.51816 -4.423001,-1.40376 -5.626837,-2.85779 -0.879198,-1.06193 -1.60396,-2.80111 -2.016204,-4.83821 -0.387654,-1.91557 -0.422222,-3.14211 -0.381257,-13.52734 0.03816,-9.67487 0.04517,-9.98042 0.253387,-11.05 0.290958,-1.49461 0.550375,-2.38338 0.999052,-3.42277 1.362086,-3.15538 3.710151,-5.00997 7.417687,-5.85878 l 0.954172,-0.2189 25.452548,-0.0265 25.45256,-0.0265 0.67671,4.17651 c 0.37219,2.29708 0.67479,4.20263 0.67245,4.23455 -0.002,0.0319 -0.61687,-0.0675 -1.36562,-0.221 -3.8183,-0.78264 -3.94931,-0.78699 -23.58865,-0.78331 -18.816248,0.004 -18.308108,-0.0111 -19.355768,0.55906 -0.624402,0.33984 -0.928567,0.75965 -1.222448,1.68721 -0.219939,0.69418 -0.221782,0.7561 -0.221782,7.45 0,6.74569 1.46e-4,6.75046 0.227785,7.47469 0.336846,1.07167 0.830845,1.55656 1.972215,1.93584 0.32373,0.10757 3.69864,0.14403 17.699998,0.19121 18.77166,0.0633 17.89023,0.0367 20.10001,0.60521 0.99946,0.25713 2.41235,0.92415 3.20369,1.51246 1.79611,1.33529 2.84384,3.50197 3.40924,7.05024 0.15306,0.96057 0.17648,2.2667 0.21127,11.78035 0.0455,12.4375 0.008,13.2611 -0.72677,15.80134 -1.17238,4.05533 -3.81457,6.45479 -8.11373,7.36837 l -1.0837,0.23029 -26.213758,0.0267 -26.213741,0.0267 z m 91.43974,-0.30165 c 0.45728,-1.15511 0.80843,-2.17547 1.09266,-3.175 0.61539,-2.1641 0.5963,-1.72283 0.59645,-13.78899 l 1.4e-4,-11.03899 -11.36653,-17.51101 c -6.25158,-9.63106 -11.89638,-18.29851 -12.54398,-19.26101 -1.39565,-2.07429 -2.57428,-3.60765 -3.74721,-4.875 l -0.85609,-0.925 h 10.99832 10.99832 l -0.0164,1.025 c -0.0189,1.17745 0.0882,1.57859 0.81982,3.07109 0.51385,1.04827 18.7164,29.43387 18.86835,29.42386 0.10678,-0.007 18.71676,-27.54697 19.40243,-28.71263 0.24027,-0.40848 0.58149,-1.12848 0.75825,-1.6 0.29251,-0.78031 0.32198,-0.96284 0.32806,-2.03211 l 0.007,-1.17479 5.78164,-2.1e-4 5.78165,-2.1e-4 -0.85841,0.81256 c -0.92116,0.87195 -1.86598,2.00682 -3.07324,3.69144 -0.41544,0.5797 -6.34271,9.39197 -13.17172,19.58281 l -12.41638,18.52881 0.0327,11.36719 c 0.0321,11.18446 0.0361,11.3817 0.24531,12.26955 0.2724,1.15586 0.85475,2.95695 1.28898,3.98656 0.18673,0.44275 0.33951,0.81762 0.33951,0.83304 0,0.0154 -4.38684,0.028 -9.74854,0.028 h -9.74854 z m 50.53903,0.35 c 0.82157,-2.01988 1.45093,-4.09072 1.69434,-5.575 0.14984,-0.91375 0.16134,-3.52295 0.13328,-30.25 l -0.0307,-29.25 -0.26296,-1.05 c -0.27438,-1.09563 -0.87192,-2.96912 -1.31565,-4.125 l -0.25913,-0.675 h 11.57697 11.57697 l 11.4403,27.14492 c 6.29216,14.92971 11.45854,27.12668 11.48084,27.10438 0.0223,-0.0223 5.19969,-12.22626 11.50533,-27.11992 l 11.46479,-27.07938 11.17292,-0.0254 c 6.25679,-0.0143 11.17292,0.0127 11.17292,0.0612 0,0.0477 -0.13656,0.41785 -0.30348,0.82262 -0.44312,1.07458 -0.95331,2.73841 -1.21636,3.96679 l -0.23016,1.07479 v 29.6 c 0,28.56183 0.007,29.63157 0.18761,30.5 0.25673,1.23158 0.76897,2.90567 1.24689,4.075 l 0.39849,0.975 h -9.94149 c -5.46783,0 -9.9415,-0.0351 -9.9415,-0.078 0,-0.0429 0.15278,-0.44029 0.33951,-0.88304 0.45498,-1.07879 0.99639,-2.77248 1.276,-3.99164 l 0.22871,-0.99728 0.0298,-27.44359 c 0.0164,-15.09398 0.005,-27.41879 -0.0253,-27.38847 -0.0303,0.0303 -5.78918,13.70743 -12.79748,30.39359 l -12.74234,30.33843 h -6.42465 -6.42464 l -12.52566,-30.2 c -6.88912,-16.61 -12.59254,-30.335 -12.67428,-30.5 -0.13179,-0.26605 -0.14606,2.82916 -0.12604,27.35 0.0214,26.16473 0.0322,27.69029 0.20135,28.4 0.32307,1.35528 0.74962,2.73202 1.20059,3.875 l 0.44388,1.125 h -5.80042 c -5.48467,0 -5.79655,-0.01 -5.72925,-0.175 z m 101.55022,0.097 c 0,-0.0429 0.15278,-0.44029 0.33951,-0.88304 0.47285,-1.12117 1.00586,-2.80563 1.27935,-4.04307 l 0.23114,-1.04589 v -29.4 -29.4 l -0.23312,-1.08412 c -0.25758,-1.19791 -0.74334,-2.79398 -1.27177,-4.17869 -0.18981,-0.49739 -0.34511,-0.92299 -0.34511,-0.94577 0,-0.0228 13.19625,-0.0412 29.325,-0.0408 31.65592,6.4e-4 30.14438,-0.0234 32.07131,0.50924 0.41453,0.11457 1.17451,0.40604 1.68884,0.64771 3.37672,1.58659 5.20042,4.45144 5.8851,9.2449 0.1617,1.13207 0.17827,2.20569 0.17897,11.59756 6e-4,7.91531 -0.0299,10.597 -0.12976,11.4 -0.41616,3.34739 -1.41809,5.77878 -3.10279,7.5295 -1.43808,1.49445 -2.9992,2.31174 -5.53895,2.8998 l -0.92772,0.21481 -20.728,0.03 -20.72799,0.03 0.028,10.77293 0.028,10.77293 0.37133,1.37197 c 0.20423,0.75459 0.61273,1.98084 0.90778,2.725 l 0.53645,1.35303 h -9.93278 c -5.46303,0 -9.93278,-0.0351 -9.93278,-0.078 z m 49.93845,-34.57129 c 1.75742,-0.37232 2.50264,-1.17468 2.92903,-3.15358 0.17012,-0.7896 0.18252,-1.55682 0.18252,-11.29713 0,-9.63484 -0.0138,-10.51418 -0.17759,-11.27274 -0.44173,-2.04653 -1.23111,-2.84009 -3.16907,-3.18587 -0.60879,-0.10862 -3.72256,-0.13508 -16.22834,-0.1379 l -15.475,-0.003 v 14.6 14.6 l 15.625,-0.002 c 13.30548,-0.001 15.7272,-0.0234 16.31345,-0.14759 z m 29.65922,33.71736 c 0.50626,-1.23948 1.04455,-2.92198 1.26952,-3.96803 0.17477,-0.81261 0.18281,-2.16093 0.18281,-30.65 v -29.8 l -0.22876,-0.9408 c -0.27454,-1.12911 -0.91855,-3.13267 -1.3194,-4.10474 l -0.2905,-0.7045 h 9.94433 c 5.46938,0 9.94433,0.0213 9.94433,0.0474 0,0.0261 -0.1295,0.37482 -0.28778,0.775 -0.47254,1.19474 -1.08306,3.15781 -1.33035,4.2776 l -0.23187,1.05 v 28.75 28.75 l 16.55,0.0294 c 17.21235,0.0306 18.9122,1.3e-4 21.55,-0.38594 1.18896,-0.17401 1.8857,-0.30706 3.95794,-0.75577 l 0.25793,-0.0559 -0.62706,4.28408 c -0.34489,2.35625 -0.62971,4.29534 -0.63294,4.30909 -0.003,0.0137 -13.29954,0.025 -29.54737,0.025 h -29.54149 z m 65.03585,0.80697 c 0.63913,-1.45467 1.35163,-3.61961 1.63732,-4.975 0.16989,-0.80603 0.17916,-2.37867 0.17916,-30.4 v -29.55 l -0.23309,-1.04121 c -0.23583,-1.05341 -0.87406,-3.09692 -1.35353,-4.33379 l -0.26166,-0.67504 h 28.94914 c 15.92203,0 28.94914,0.0153 28.94914,0.034 0,0.0619 1.19294,7.91058 1.24658,8.20158 0.0441,0.23937 0.0248,0.27487 -0.11936,0.21955 -0.3507,-0.13458 -3.12096,-0.64769 -4.42722,-0.82001 -1.24226,-0.16388 -2.75655,-0.18064 -18.975,-0.21001 l -17.625,-0.0319 v 11.75555 11.75556 l 17.775,-0.0271 17.775,-0.0271 1.06983,-0.22761 c 0.5884,-0.12519 1.25781,-0.29394 1.48757,-0.375 0.22976,-0.0811 0.43459,-0.14739 0.45517,-0.14739 0.0206,0 0.0374,2.05231 0.0374,4.5607 0,3.84063 -0.0218,4.55232 -0.13825,4.50765 -0.52912,-0.20305 -1.64037,-0.49986 -2.40599,-0.64265 -0.82402,-0.15368 -2.49179,-0.17178 -18.48076,-0.20049 l -17.575,-0.0316 v 12.7076 12.7076 l 17.525,-0.038 c 15.24058,-0.033 17.68142,-0.0585 18.725,-0.19581 1.57271,-0.20685 2.84129,-0.42772 4.23452,-0.73727 0.62398,-0.13864 1.15036,-0.23622 1.16974,-0.21685 0.0194,0.0194 -0.24071,1.95759 -0.57795,4.30715 l -0.61314,4.27185 h -29.24227 c -23.35644,0 -29.23121,-0.0252 -29.18735,-0.125 z m 78.64222,-0.0284 c -2.67204,-0.36428 -4.61966,-1.22212 -6.1978,-2.72987 -2.09344,-2.00006 -3.16594,-4.72085 -3.47544,-8.8167 -0.14035,-1.85731 -0.13767,-45.73174 0.003,-47.69281 0.47334,-6.6032 3.15513,-10.15249 8.64459,-11.44096 l 0.9,-0.21125 23.45,-0.0286 23.45,-0.0286 0.67978,4.17611 c 0.37388,2.29686 0.67763,4.2018 0.675,4.2332 -0.003,0.0314 -0.71353,-0.0872 -1.57978,-0.26365 -3.49231,-0.71122 -2.65488,-0.68121 -20.075,-0.71933 -10.20047,-0.0223 -15.96629,10e-4 -16.46021,0.0666 -2.09733,0.27862 -2.99976,1.07453 -3.45267,3.04512 -0.18006,0.78342 -0.18712,1.72515 -0.18712,24.96413 0,22.36759 0.0125,24.20358 0.16982,24.87595 0.44344,1.89567 1.11578,2.63831 2.80203,3.09504 0.57523,0.1558 1.87914,0.17315 15.47815,0.20597 17.64435,0.0426 18.57015,0.0104 22.53913,-0.78399 0.81902,-0.16393 1.49777,-0.28566 1.50834,-0.27051 0.0106,0.0151 -0.19182,1.40004 -0.44974,3.07754 -0.25793,1.6775 -0.54878,3.57875 -0.64633,4.225 l -0.17737,1.175 -23.31202,-0.0103 c -18.78096,-0.008 -23.50137,-0.0361 -24.28627,-0.14313 z m 73.87168,-0.62641 c 0.39874,-0.94543 1.07026,-2.99528 1.317,-4.02016 0.1716,-0.71278 0.18197,-2.1929 0.20907,-29.825 l 0.0285,-29.075 -8.12601,8.8e-4 c -9.696,0.001 -11.36591,0.0962 -14.73312,0.83975 -0.60108,0.13273 -1.09663,0.23413 -1.10122,0.22535 -0.005,-0.009 0.20269,-1.38848 0.46061,-3.06598 0.25793,-1.6775 0.54878,-3.57875 0.64633,-4.225 l 0.17737,-1.175 30.76202,2.4e-4 30.76201,2.5e-4 0.6281,4.17475 c 0.34545,2.29612 0.6267,4.20206 0.625,4.23542 -0.002,0.0334 -0.61386,-0.0685 -1.36034,-0.22645 -3.34445,-0.70748 -3.43504,-0.71255 -13.51776,-0.75707 l -9.125,-0.0403 2.8e-4,28.28158 c 2e-4,19.82034 0.0329,28.55084 0.10945,29.18158 0.14855,1.2246 0.58432,2.87242 1.19617,4.52311 0.28069,0.75729 0.53444,1.45564 0.56389,1.55189 0.0507,0.16585 -0.46666,0.175 -9.89886,0.175 h -9.9524 z m 59.00258,0.71147 c -0.22,-0.0202 -0.88606,-0.12741 -1.48014,-0.23822 -4.34341,-0.8102 -7.15884,-3.45829 -8.27405,-7.7823 -0.56765,-2.20095 -0.52632,-0.12723 -0.59209,-29.71118 l -0.0606,-27.25 -0.22006,-0.95751 c -0.25121,-1.0931 -0.90871,-3.19707 -1.33442,-4.27009 -0.15874,-0.40018 -0.28864,-0.74893 -0.28864,-0.775 0,-0.0261 4.47495,-0.0474 9.94433,-0.0474 h 9.94433 l -0.2905,0.70446 c -0.37826,0.9173 -1.03083,2.92776 -1.31605,4.05451 l -0.22554,0.89103 -0.0328,26.75 c -0.0234,19.09008 -10e-4,26.97205 0.0772,27.52543 0.3583,2.52441 1.34376,3.42237 4.03804,3.67948 1.75154,0.16715 35.05249,0.0751 35.71095,-0.0987 1.72926,-0.45647 2.47264,-1.23724 2.92555,-3.07268 0.15566,-0.6308 0.17103,-2.72233 0.19946,-27.13348 0.0341,-29.32224 0.0748,-27.37061 -0.6207,-29.78315 -0.26882,-0.93244 -0.85147,-2.55127 -1.22079,-3.39185 -0.0436,-0.0992 1.1146,-0.125 5.60578,-0.125 3.11339,0 5.6607,0.022 5.6607,0.0488 0,0.0269 -0.15272,0.42061 -0.33938,0.875 -0.4616,1.12371 -1.00026,2.82535 -1.27536,4.02889 l -0.22796,0.99728 -0.0593,27.75 c -0.0543,25.40664 -0.0735,27.81756 -0.22653,28.55 -1.06303,5.08663 -3.57295,7.58073 -8.67143,8.61675 -0.78943,0.16041 -2.49263,0.17375 -23.9,0.18721 -12.6775,0.008 -23.23,-0.002 -23.45,-0.0223 z m 68.10291,-0.0567 c -0.0687,-0.21054 -1.33261,-8.32285 -1.30192,-8.35653 0.0158,-0.0173 0.58455,0.0807 1.26388,0.21788 1.46072,0.29497 2.86949,0.50499 4.58513,0.68355 1.88372,0.19606 38.28741,0.18992 39.15,-0.007 1.75404,-0.39961 2.32134,-1.19922 2.54822,-3.59177 0.1285,-1.35502 0.13088,-12.96254 0.003,-14.17673 -0.11062,-1.04958 -0.40092,-2.06646 -0.72899,-2.55352 -0.12643,-0.18771 -0.41605,-0.44407 -0.64359,-0.56969 -0.96182,-0.531 -0.63031,-0.52157 -18.36235,-0.52194 -10.91486,-2.3e-4 -16.80158,-0.0363 -17.5662,-0.10774 -4.97653,-0.46476 -7.43548,-2.19915 -8.69209,-6.13086 -0.83355,-2.60802 -0.93659,-4.4518 -0.88087,-15.76106 0.0374,-7.58642 0.0672,-8.99992 0.20872,-9.9 0.5131,-3.263 1.53974,-5.55974 3.22946,-7.22478 1.38655,-1.3663 2.92482,-2.15486 5.28478,-2.70912 l 0.9,-0.21138 25.47272,-0.0289 25.47271,-0.0289 0.0491,0.22652 c 0.11205,0.51636 1.35717,8.20792 1.33239,8.23067 -0.0148,0.0136 -0.48498,-0.0787 -1.04476,-0.20518 -1.44662,-0.32682 -3.62172,-0.62515 -5.48221,-0.75192 -1.08813,-0.0741 -7.18262,-0.0991 -19.05,-0.078 l -17.45,0.031 -0.65,0.22204 c -1.13272,0.38693 -1.70528,1.08065 -2.00393,2.42796 -0.16797,0.75778 -0.2529,11.42435 -0.1032,12.96095 0.17195,1.76497 0.54404,2.62106 1.33866,3.07993 0.91085,0.52599 4.1e-4,0.49848 18.56847,0.56106 15.90313,0.0536 17.43608,0.0731 18.38221,0.2336 4.7464,0.80528 7.06577,2.91693 8.03398,7.31446 0.48951,2.22331 0.50299,2.53128 0.55382,12.65 0.0611,12.15686 -0.0176,13.93046 -0.72928,16.45 -0.31075,1.1001 -1.08681,2.7589 -1.67895,3.58871 -0.53039,0.74328 -1.60191,1.77088 -2.39354,2.29546 -1.35683,0.89909 -3.2931,1.53471 -5.34716,1.75532 -1.57872,0.16956 -52.21266,0.15552 -52.26817,-0.0145 z m 81.83161,-46.5817 c -1.01794,-0.1263 -2.47195,-0.5015 -3.4298,-0.88504 -4.07815,-1.63298 -7.30946,-5.53388 -8.16606,-9.85826 -0.21129,-1.06665 -0.18799,-4.37152 0.0382,-5.41917 0.63356,-2.93441 2.04935,-5.30989 4.41547,-7.40848 1.77803,-1.57699 3.70656,-2.53361 6.20767,-3.07925 1.21156,-0.26432 4.0756,-0.24629 5.35732,0.0337 2.62667,0.57384 4.52397,1.58915 6.46726,3.46088 2.31876,2.23336 3.60145,4.6151 4.07271,7.5623 0.17703,1.10715 0.19858,3.05575 0.0459,4.15331 -0.40464,2.90927 -1.67684,5.41549 -3.85213,7.58866 -1.98183,1.97988 -4.34924,3.25183 -6.91221,3.71373 -1.02158,0.1841 -3.27958,0.25731 -4.24435,0.1376 z m 3.67124,-1.64101 c 2.39467,-0.3884 4.33394,-1.3724 6.16339,-3.12735 2.23167,-2.14079 3.38945,-4.49741 3.68462,-7.49994 0.19984,-2.03273 -0.17504,-4.33064 -0.9903,-6.07036 -1.09478,-2.3362 -3.17433,-4.49446 -5.46533,-5.67219 -2.70678,-1.39148 -6.08158,-1.66254 -9.04856,-0.72677 -1.82333,0.57508 -3.28456,1.50623 -4.84958,3.09034 -2.05732,2.08243 -3.11402,4.35159 -3.34274,7.17824 -0.30219,3.73467 0.83839,6.84473 3.48017,9.48951 1.98454,1.9868 3.92918,2.96286 6.81257,3.41941 0.63023,0.0998 2.73733,0.0519 3.55576,-0.0809 z m -8.80444,-5.12729 c 0.33743,-0.81203 0.3487,-1.0262 0.34542,-6.56589 -0.003,-5.18619 -0.0146,-5.54135 -0.19674,-6.05911 -0.10641,-0.3025 -0.19494,-0.58375 -0.19674,-0.625 -0.005,-0.1165 11.08405,-0.0912 11.70575,0.0267 0.69636,0.13206 1.23088,0.49338 1.51399,1.0234 0.20833,0.39001 0.22963,0.57765 0.25959,2.28595 0.0388,2.21325 -0.0297,2.56239 -0.61849,3.15115 -0.39572,0.39572 -1.17567,0.73779 -1.68225,0.73779 -0.10002,0 -0.18185,0.0172 -0.18185,0.0381 0,0.21199 2.34934,5.25665 2.63,5.64731 l 0.37247,0.51846 -2.16029,-0.027 -2.16029,-0.0269 -1.23433,-3 -1.23433,-3 -1.55662,-0.0275 -1.55661,-0.0275 v 2.50504 c 0,2.21585 0.0222,2.56824 0.19243,3.05254 l 0.19243,0.5475 h -2.25313 c -2.10687,0 -2.24841,-0.0114 -2.18041,-0.175 z m 9.5181,-7.76634 0.28058,-0.24134 v -1.60588 c 0,-2.23676 0.27221,-2.05329 -3.10261,-2.0911 l -2.64739,-0.0297 v 2.10466 2.10466 h 2.59442 2.59443 z M 252.49481,464.97478 c 0,-0.0377 0.0855,-0.16146 0.18996,-0.275 0.24377,-0.26493 10.00656,-14.93062 10.09419,-15.16351 0.0362,-0.0963 1.46085,-1.09075 3.16585,-2.20996 6.51822,-4.27874 15.79283,-10.71206 16.38265,-11.36381 0.22134,-0.24457 3.49112,-6.70011 3.45016,-6.81166 -0.0181,-0.0491 -0.41531,0.1386 -0.88281,0.4172 -1.34358,0.80069 -7.38887,4.22175 -9.15,5.17803 -0.88,0.47784 -2.56309,1.39336 -3.7402,2.0345 -1.17711,0.64113 -2.16644,1.13946 -2.1985,1.10739 -0.0321,-0.0321 0.0366,-0.13398 0.15251,-0.22647 0.24665,-0.19673 8.88428,-11.20324 8.94922,-11.40356 0.0242,-0.0745 2.02234,-1.04348 4.44044,-2.15336 2.41809,-1.10987 4.79706,-2.21894 5.2866,-2.4646 l 0.89007,-0.44664 0.54263,-1.25 c 0.29845,-0.6875 0.92417,-2.1725 1.39049,-3.3 0.46632,-1.1275 0.89793,-2.15118 0.95912,-2.27485 0.0612,-0.12367 0.0869,-0.24922 0.0571,-0.279 -0.0298,-0.0298 -0.4086,0.0867 -0.84182,0.2588 -1.03927,0.41292 -11.22245,4.19505 -11.29492,4.19505 -0.0309,0 -0.0318,-0.0788 -0.002,-0.175 0.0817,-0.26371 0.48108,-7.02535 0.43715,-7.40168 l -0.0382,-0.32699 0.95514,-0.29223 c 0.52532,-0.16073 3.22763,-0.9724 6.00513,-1.80372 2.7775,-0.83132 5.68499,-1.71112 6.4611,-1.95511 l 1.41109,-0.44363 0.52803,-1.47582 c 0.60173,-1.68182 1.99978,-5.83526 1.99978,-5.94111 0,-0.0387 -0.40825,0.039 -0.90722,0.1725 -1.10874,0.29672 -1.23039,0.30427 -1.09225,0.0678 0.12026,-0.20587 1.50662,-6.92596 1.52579,-7.39594 0.0146,-0.35803 -0.0883,-0.31942 1.82368,-0.68429 0.495,-0.0945 0.9519,-0.22193 1.01534,-0.28326 0.1911,-0.18476 1.56598,-5.48031 2.49543,-9.61151 3.2099,-14.26734 4.73823,-27.80197 4.73699,-41.95 -10e-4,-16.96831 -2.28987,-33.80155 -6.87848,-50.5979 l -0.28628,-1.0479 -1.44725,-0.29708 -1.44724,-0.29708 -0.0121,-0.30502 c -0.0184,-0.46668 -1.42935,-7.28802 -1.53335,-7.41333 -0.18186,-0.21913 0.0337,-0.21358 0.97348,0.0251 0.52635,0.13365 0.97488,0.22512 0.99675,0.20326 0.0458,-0.0458 -2.06552,-6.32525 -2.34944,-6.9876 l -0.18891,-0.44073 -1.13749,-0.35491 c -0.62562,-0.1952 -3.95059,-1.20077 -7.38882,-2.2346 l -6.25133,-1.87968 0.0333,-0.36125 c 0.0416,-0.45126 -0.36086,-7.14341 -0.44232,-7.35569 -0.0328,-0.0856 -0.0107,-0.15555 0.0491,-0.15555 0.0993,0 10.36465,3.79787 11.58758,4.28707 0.28875,0.11551 0.525,0.17102 0.525,0.12335 0,-0.0972 -1.22651,-3.05436 -2.24372,-5.40962 -0.62127,-1.43849 -0.8789,-1.9008 -1.05923,-1.9008 -0.0396,0 -0.80886,-0.35104 -1.70951,-0.78008 -0.90065,-0.42905 -3.1913,-1.49149 -5.09034,-2.36099 -2.53066,-1.1587 -3.48049,-1.6396 -3.55651,-1.80068 -0.1574,-0.33352 -8.81699,-11.33325 -8.96323,-11.3854 -0.0701,-0.025 -0.095,-0.0803 -0.0554,-0.12288 0.0396,-0.0426 1.47963,0.68888 3.2,1.62546 1.72036,0.93658 3.37544,1.837 3.67794,2.00092 0.77118,0.41791 7.82819,4.42874 7.95,4.51836 0.055,0.0405 0.36349,0.22172 0.68553,0.40279 l 0.58553,0.32923 -1.76049,-3.49729 -1.7605,-3.49728 -1.87503,-1.35047 c -5.20857,-3.7514 -11.05454,-7.74094 -16.24352,-11.08526 -0.80767,-0.52054 -1.47142,-1.00034 -1.475,-1.06621 -0.009,-0.15927 -9.98039,-15.14491 -10.18369,-15.3042 -0.087,-0.0682 -0.12896,-0.15324 -0.0932,-0.18901 0.0709,-0.0709 0.31516,0.10709 3.07035,2.23767 7.00309,5.41547 15.9768,12.92825 21.34342,17.86871 0.60139,0.55363 1.06054,0.9187 1.02034,0.81128 -0.0601,-0.16076 -0.84844,-1.52449 -3.4528,-5.97322 -0.0865,-0.1477 -0.12484,-0.30091 -0.0853,-0.34046 0.0781,-0.0781 0.46481,0.34128 1.52965,1.659 0.37778,0.4675 1.09945,1.34715 1.60371,1.95479 1.23321,1.48603 3.60508,4.48932 5.78937,7.3306 1.49961,1.95066 2.08428,2.61785 3.54906,4.05 2.4101,2.35642 4.73136,4.75499 7.4934,7.74296 1.8644,2.01691 2.6826,2.81592 4.0449,3.95 2.51063,2.09005 5.46917,4.6839 8.45235,7.41048 2.1428,1.95848 3.04401,2.70238 4.8,3.96218 2.94253,2.11104 6.17401,4.55826 9.13731,6.91974 1.36149,1.08497 2.57649,2.02528 2.7,2.08957 0.23195,0.12073 6.23011,3.88107 6.67458,4.18439 0.1375,0.0938 1.3075,0.88332 2.6,1.75441 1.2925,0.87108 3.0025,2.04297 3.8,2.60419 0.7975,0.56122 2.1925,1.4149 3.1,1.89706 0.9075,0.48216 1.92,1.02046 2.25,1.19621 1.58594,0.84464 7.22986,4.11919 9.1,5.27974 2.17476,1.34958 2.77726,1.67966 4.3,2.35578 1.90958,0.84789 8.934,4.36403 11.69209,5.8526 1.59065,0.85849 3.21065,1.68055 3.6,1.8268 1.95207,0.73325 10.56699,4.48928 13.15848,5.73699 2.18945,1.05413 3.42612,1.58205 4.79943,2.04882 3.99783,1.3588 11.41015,4.26042 15.71623,6.15224 2.38357,1.0472 4.40127,1.94135 4.48377,1.98702 0.0825,0.0457 1.74321,0.92903 3.69047,1.96304 2.91147,1.54602 4.06626,2.22687 6.5,3.8323 2.73083,1.80142 3.12867,2.10219 5.14832,3.8921 2.07977,1.84319 2.25343,2.02538 3.48656,3.6579 0.71377,0.94496 1.37484,1.8081 1.46904,1.9181 0.0942,0.11 0.5168,1.1225 0.93909,2.25 l 0.7678,2.05 -6.4e-4,1.83411 -6.4e-4,1.83411 -0.75721,2.00742 -0.75721,2.00741 -1.46779,1.95434 c -0.80729,1.07489 -1.62257,2.09121 -1.81174,2.25848 -4.07853,3.60635 -3.98524,3.53272 -7.00605,5.52943 -2.44481,1.61598 -3.56628,2.27741 -6.54869,3.8623 -1.97928,1.05182 -3.93678,2.06213 -4.35,2.24512 -7.06919,3.13063 -8.66787,3.79853 -13.20131,5.51522 -2.7775,1.05176 -5.68,2.11706 -6.45,2.36735 -0.96826,0.31472 -2.38683,0.92647 -4.6,1.98373 -2.9312,1.40027 -9.60304,4.31562 -12.81877,5.60134 -0.72533,0.29 -2.53735,1.18709 -4.02672,1.99353 -3.39251,1.83692 -7.72506,4.00119 -11.9142,5.95159 -1.01555,0.47282 -2.50975,1.29761 -3.85,2.12518 -2.74546,1.69525 -8.34278,4.90286 -11.04031,6.32678 -1.25999,0.6651 -2.60879,1.47474 -3.5,2.10094 -3.33501,2.34332 -11.8282,7.89113 -13.08087,8.54452 -0.12698,0.0662 -1.22948,0.91752 -2.45,1.89175 -2.76507,2.2071 -6.90678,5.34074 -9.46913,7.1644 -2.37305,1.68893 -2.05575,1.42651 -4.96037,4.10246 -2.76935,2.55134 -5.38424,4.84517 -8.13963,7.14024 -1.0725,0.89332 -2.28366,1.99188 -2.69146,2.44124 -2.18002,2.40214 -5.00607,5.36932 -7.87381,8.26701 -2.86068,2.89055 -3.38929,3.47673 -4.77949,5.3 -1.26874,1.66399 -3.98338,5.12745 -4.74195,6.05 -0.0904,0.11 -0.7924,0.965 -1.55991,1.9 -1.45519,1.77278 -2.66017,3.0582 -2.26032,2.41122 0.11382,-0.18415 0.20694,-0.38164 0.20694,-0.43886 0,-0.0572 0.495,-0.94478 1.1,-1.97236 0.605,-1.02758 1.1,-1.891 1.1,-1.91872 0,-0.0277 0.082,-0.16985 0.18225,-0.31584 0.10024,-0.14599 0.33049,-0.5328 0.51166,-0.85958 l 0.3294,-0.59414 -0.68665,0.62437 c -5.20422,4.73216 -11.52869,10.11102 -17.48666,14.87214 -2.85356,2.28033 -7.31122,5.74177 -7.39428,5.74177 -0.0307,0 -0.0557,-0.0308 -0.0557,-0.0686 z m 40.77602,-37.31723 c 3.3788,-2.70172 3.58234,-2.90875 7.91598,-8.05172 0.16314,-0.19361 -0.40344,0.15511 -2.892,1.77998 -0.7975,0.52072 -2.02648,1.29793 -2.73108,1.72714 l -1.28107,0.78038 -1.96893,2.94198 c -2.19565,3.28076 -2.14854,3.20802 -2.07772,3.20802 0.0281,0 1.39379,-1.0736 3.03482,-2.38578 z m 11.04827,-13.79039 2.5743,-1.35724 0.98633,-1.30829 c 0.96793,-1.28388 3.30254,-4.48555 3.45281,-4.73516 0.042,-0.0698 -0.18555,-0.0104 -0.50568,0.13185 -0.32013,0.14228 -2.22455,0.9361 -4.23205,1.76404 -2.0075,0.82794 -3.76947,1.56631 -3.91548,1.64081 -0.18962,0.0968 -0.57216,0.68619 -1.33873,2.06281 -0.59029,1.06004 -1.37559,2.44485 -1.74512,3.07735 -0.36953,0.6325 -0.72571,1.25272 -0.79153,1.37826 -0.13926,0.26563 1.19113,-0.37468 5.51515,-2.65443 z m 15.77571,-8.75193 c 1.5675,-0.93033 3.0075,-1.81041 3.2,-1.95573 0.43104,-0.32541 5.07345,-4.26494 5.35,-4.54 l 0.2,-0.19891 -0.2,0.10093 c -0.41292,0.20838 -2.78638,1.32169 -5.27373,2.47372 l -2.57374,1.19203 -0.62626,0.71438 c -0.34445,0.39292 -1.45877,1.6075 -2.47627,2.69907 l -1.85,1.98469 0.7,-0.38934 c 0.385,-0.21413 1.9825,-1.15051 3.55,-2.08084 z m -8.95,-4.01939 c 3.31268,-1.11271 4.76085,-1.64381 4.90616,-1.79928 0.22512,-0.24086 2.25238,-3.55734 3.23043,-5.2848 0.43645,-0.77087 0.56224,-1.06708 0.43789,-1.0311 -0.43404,0.12557 -9.04974,2.47046 -9.66978,2.63177 l -0.69529,0.1809 -0.96125,2.15 c -0.52868,1.1825 -1.17668,2.6 -1.44,3.15 -0.73737,1.54016 -0.79418,1.68474 -0.64008,1.62896 0.0726,-0.0263 2.24692,-0.75816 4.83192,-1.62645 z m 17.65,-6.25546 c 1.1275,-0.42621 3.06966,-1.16782 4.31592,-1.64803 l 2.26592,-0.87311 1.58408,-1.61312 c 1.61175,-1.6413 3.13047,-3.23135 3.47451,-3.63771 l 0.19043,-0.22492 -0.59043,0.20572 c -0.32474,0.11315 -2.41293,0.74498 -4.64043,1.40406 -2.2275,0.65909 -4.19542,1.24469 -4.37315,1.30134 -0.2361,0.0753 -0.46947,0.30983 -0.8664,0.87086 -0.43245,0.61124 -2.9403,3.93338 -3.48837,4.62103 -0.0671,0.0842 -0.18923,0.23699 -0.2713,0.33943 -0.1394,0.174 -0.13282,0.18109 0.1,0.10781 0.13707,-0.0431 1.17172,-0.42715 2.29922,-0.85336 z m -13.55,-7.19129 c 1.9962,-0.41044 7.3049,-1.56808 8.13008,-1.77289 0.26981,-0.067 0.69026,-0.86378 1.99023,-3.77181 4.72491,-10.56963 7.71145,-21.05904 8.97179,-31.51106 0.54218,-4.49629 0.60501,-5.70386 0.60349,-11.6 -0.001,-5.27084 -0.0747,-7.07162 -0.3989,-9.8 -0.36092,-3.03708 -0.49655,-4.05314 -0.75151,-5.62982 -1.60016,-9.89554 -4.72626,-19.79346 -9.37083,-29.67018 -0.41382,-0.88 -0.76511,-1.61526 -0.78063,-1.63392 -0.0801,-0.0963 -11.13021,-2.46874 -11.18521,-2.40146 -0.0263,0.0321 0.58141,1.78627 1.32872,3.83538 1.20616,3.30728 3.15987,10.09954 4.1995,14.6 1.01193,4.38053 2.08226,10.20414 2.47199,13.45 0.31749,2.64423 0.67025,6.19124 0.78568,7.9 0.25036,3.70611 0.29198,5.041 0.29153,9.35 -6.3e-4,5.97754 -0.20608,9.69809 -0.83937,15.2 -0.25316,2.1994 -0.24756,2.15647 -0.55167,4.22961 -1.14795,7.82555 -3.10801,16.07175 -5.66195,23.82039 -0.60211,1.82681 -1.78973,5.22963 -2.03475,5.83008 -0.0614,0.15057 -0.0345,0.17099 0.16416,0.12461 0.13071,-0.0305 1.31765,-0.27753 2.63765,-0.54893 z m 35.1,-1.57684 c 1.65,-0.74015 3.3375,-1.55275 3.75,-1.80578 1.25071,-0.76718 5.51715,-3.63932 5.47246,-3.68401 -0.023,-0.023 -1.95922,0.63025 -4.30274,1.45163 l -4.26095,1.49342 -2.48478,2.08291 c -1.36663,1.1456 -2.63985,2.20533 -2.82938,2.35496 -0.32024,0.25282 -0.2739,0.24308 0.65539,-0.13768 0.55,-0.22535 2.35,-1.01531 4,-1.75545 z m -9.7,-4.13333 c 2.75,-0.66115 5.0675,-1.22435 5.15,-1.25156 0.27527,-0.0908 3.00975,-3.79984 4.93518,-6.69403 12.0191,-18.06648 14.71398,-36.0747 8.11089,-54.2 -2.56892,-7.0516 -6.99125,-14.80909 -12.31757,-21.60706 l -0.63235,-0.80706 -5.30273,-1.27995 c -2.91651,-0.70397 -5.32226,-1.26043 -5.34611,-1.23657 -0.0239,0.0238 0.44232,0.85051 1.03594,1.83701 4.41416,7.33556 7.93182,15.42572 9.9565,22.89868 0.47461,1.75172 1.29052,5.24048 1.42543,6.09495 0.026,0.165 0.17656,1.0875 0.33448,2.05 1.81971,11.09131 0.87988,22.68087 -2.76528,34.1 -0.4947,1.54975 -2.02127,5.74441 -2.38375,6.55 -0.0742,0.165 -0.47066,1.065 -0.88094,2 -1.50396,3.42741 -3.73352,7.71727 -5.76458,11.09151 -0.55281,0.9184 -1.00511,1.69062 -1.00511,1.71605 0,0.0254 0.10125,0.0224 0.225,-0.007 0.12375,-0.0292 2.475,-0.59401 5.225,-1.25515 z m 19.9,-5.04233 c 4.79608,-1.26483 6.36218,-1.72614 6.7,-1.97352 0.98159,-0.7188 4.08398,-3.38346 5.79145,-4.97431 6.87599,-6.40634 11.69717,-12.92065 14.27348,-19.28612 0.94477,-2.33431 1.71453,-5.06122 1.99555,-7.06931 0.10776,-0.77 0.23722,-1.67 0.28768,-2 0.0505,-0.33 0.0774,-1.635 0.0598,-2.9 -0.0394,-2.8387 -0.30515,-4.7406 -1.04279,-7.46349 -1.71099,-6.31583 -5.67425,-12.87694 -11.55656,-19.13172 -2.04698,-2.1766 -1.73303,-1.86567 -4.21065,-4.17006 -1.46094,-1.35879 -4.54352,-4.00493 -5.70984,-4.90143 -0.17486,-0.1344 -1.47486,-0.50613 -5.73814,-1.64078 -2.1725,-0.5782 -4.04,-1.07637 -4.15,-1.10704 -0.11,-0.0307 0.23176,0.38755 0.75947,0.92938 2.28563,2.34678 6.36155,7.157 7.73122,9.12405 0.21488,0.3086 0.84443,1.21359 1.39899,2.01109 3.1536,4.53507 5.86785,10.09433 7.34801,15.05 0.51466,1.72312 1.25557,5.03722 1.37491,6.15 0.46113,4.29996 0.4591,7.04228 -0.008,11.05 -0.0256,0.22 -0.22339,1.2775 -0.43942,2.35 -1.79999,8.93625 -6.77854,18.0531 -14.71692,26.95 -0.98149,1.1 -2.19258,2.40406 -2.69131,2.89792 -0.49873,0.49385 -0.90678,0.93525 -0.90678,0.9809 0,0.0456 0.0337,0.0631 0.075,0.0389 0.0412,-0.0243 1.56,-0.43576 3.375,-0.91441 z m 21.90129,-6.48807 c 2.45169,-0.81832 4.74986,-1.64899 5.34871,-1.93328 2.24756,-1.06701 8.13001,-4.4023 10.95,-6.20855 1.595,-1.02162 3.05689,-1.97356 3.24865,-2.11542 1.87281,-1.38555 4.89992,-3.77356 5.50135,-4.33988 2.51057,-2.36402 3.68662,-3.61308 5.02977,-5.34203 1.22828,-1.58108 1.55278,-2.08143 2.40096,-3.7021 0.91237,-1.7433 1.01616,-2.00289 1.48882,-3.72393 0.50508,-1.83903 0.50837,-1.86062 0.55426,-3.64037 0.0515,-1.99742 0.0307,-2.15126 -0.61892,-4.58577 -0.40226,-1.50744 -0.51976,-1.79815 -1.43524,-3.55105 -0.87947,-1.68395 -1.17015,-2.13121 -2.46386,-3.791 -2.44271,-3.13395 -5.45653,-5.88673 -10.55579,-9.64153 -1.31728,-0.96997 -6.67419,-4.25204 -9.3,-5.69792 -4.99149,-2.74852 -5.25945,-2.86723 -10.13125,-4.48847 -2.35469,-0.78359 -4.30036,-1.40561 -4.3237,-1.38227 -0.0233,0.0234 1.11571,0.82377 2.53125,1.77873 7.42436,5.00864 13.13313,10.16215 17.03305,15.37635 0.87486,1.16968 1.59065,2.14337 1.59065,2.16375 0,0.0204 0.46161,0.86336 1.02579,1.87331 1.44156,2.58053 2.31783,4.95446 2.81869,7.63624 0.33231,1.77931 0.35487,2.029 0.35519,3.93077 3.1e-4,1.90335 -0.0219,2.15006 -0.35467,3.93219 -0.29556,1.58305 -0.47209,2.22255 -1.05427,3.81924 -0.3846,1.05479 -0.74259,1.99633 -0.79554,2.09231 -1.71732,3.11297 -2.25367,3.97934 -3.5477,5.7306 -3.7391,5.06024 -9.69108,10.43321 -17.04749,15.38907 -1.4575,0.98189 -2.66875,1.80113 -2.69167,1.82054 -0.13683,0.11586 0.56819,-0.10622 4.44296,-1.39953 z m -22.9628,-73.04915 c -0.27984,-0.21586 -4.17602,-2.81872 -5.01338,-3.34921 -0.8089,-0.51246 -1.57165,-0.88485 -4.42511,-2.16043 -1.375,-0.61466 -2.635,-1.178 -2.8,-1.25186 -0.62121,-0.27808 -1.77297,-0.75454 -1.82396,-0.75454 -0.0292,0 0.0768,0.0997 0.23547,0.22157 0.15867,0.12187 1.36849,1.12312 2.68849,2.225 1.32,1.10189 2.47331,2.06067 2.5629,2.13063 0.14607,0.11406 8.5109,3.1019 8.72559,3.1167 0.0487,0.003 -0.0188,-0.0767 -0.15,-0.17786 z m -20.16734,-7.59104 c -0.71596,-0.75625 -1.90236,-1.9825 -2.63645,-2.725 l -1.3347,-1.35 -2.6,-0.98866 c -4.71312,-1.79217 -6.24202,-2.36134 -6.34305,-2.36134 -0.0549,0 0.62052,0.93375 1.50087,2.075 0.88035,1.14125 1.87096,2.46105 2.20136,2.9329 l 0.60072,0.8579 4.02005,1.18336 c 2.21103,0.65084 4.38005,1.30765 4.82005,1.45957 0.44,0.15192 0.8614,0.2796 0.93645,0.28374 0.075,0.004 -0.44934,-0.61122 -1.1653,-1.36747 z m -19.52115,-4.77904 c 0,-0.0889 -1.50435,-2.67081 -2.67092,-4.58408 l -1.09026,-1.78811 -4.8412,-1.63796 c -2.66265,-0.90087 -4.87085,-1.62622 -4.9071,-1.61188 -0.0362,0.0143 0.30773,0.82227 0.7644,1.79541 0.45666,0.97313 1.15504,2.50313 1.55195,3.4 0.39691,0.89686 0.77149,1.6512 0.8324,1.6763 0.24572,0.10128 10.02332,2.78228 10.18573,2.79291 0.0962,0.006 0.175,-0.0129 0.175,-0.0426 z m 8.4,-5.93352 c -0.3575,-0.32106 -1.63033,-1.41459 -2.82851,-2.43008 -1.79711,-1.5231 -2.45363,-2.01065 -3.75,-2.78487 -2.5857,-1.54424 -5.45259,-3.21593 -5.61725,-3.27545 -0.0848,-0.0307 0.25076,0.3684 0.74576,0.8868 0.495,0.51839 1.63385,1.73431 2.53079,2.70202 l 1.63078,1.75949 2.86922,1.32801 c 1.57806,0.7304 3.34171,1.5672 3.91921,1.85954 0.5775,0.29235 1.0725,0.53306 1.1,0.53491 0.0275,0.002 -0.2425,-0.25932 -0.6,-0.58037 z m -17.61658,-8.53744 c -0.45097,-0.61875 -1.17941,-1.62 -1.61876,-2.225 -1.71246,-2.35809 -2.02102,-2.70756 -2.74165,-3.10518 -1.37115,-0.75655 -7.44094,-3.86022 -7.47763,-3.82354 -0.0209,0.0209 0.20993,0.45159 0.51297,0.95707 0.30304,0.50549 1.14513,1.98406 1.87131,3.28572 l 1.32034,2.36665 4.2,1.74119 c 2.31,0.95765 4.29,1.78038 4.4,1.8283 0.11,0.0479 0.2345,0.09 0.27668,0.0935 0.0422,0.003 -0.2923,-0.49991 -0.74326,-1.11866 z M 300.0347,257.07462 c -1.86502,-2.18158 -3.36234,-3.84035 -3.95779,-4.38455 -0.61028,-0.55776 -5.63668,-4.57653 -5.79311,-4.63178 -0.0546,-0.0193 0.81434,1.33693 1.9309,3.01377 l 2.03011,3.0488 1.25,0.76697 c 0.6875,0.42183 2.24,1.41146 3.45,2.19916 1.21,0.78771 2.21592,1.41796 2.23538,1.40056 0.0195,-0.0174 -0.49601,-0.65322 -1.14549,-1.41293 z m 306.56011,206.05316 c -8.09711,-6.2968 -15.79936,-12.7429 -22.34561,-18.7013 l -0.69561,-0.63315 0.33792,0.6 c 0.18586,0.33 0.8755,1.5225 1.53254,2.65 0.65704,1.1275 1.29611,2.27908 1.42015,2.55908 l 0.22552,0.50908 -0.44599,-0.43345 c -0.86872,-0.8443 -5.12243,-6.10732 -8.35279,-10.33471 -1.24923,-1.63481 -1.93396,-2.41456 -3.38079,-3.85 -2.95375,-2.93049 -7.34417,-7.52982 -9.6083,-10.06547 -0.13037,-0.14601 -0.93454,-0.841 -1.78704,-1.54441 -2.27459,-1.87682 -5.82521,-4.9882 -8.48867,-7.43856 -2.81177,-2.58681 -2.68994,-2.48616 -5.06133,-4.18117 -2.57209,-1.83846 -6.72519,-4.9846 -9.41913,-7.13537 -1.22052,-0.97444 -2.32302,-1.82611 -2.45,-1.8926 -1.31576,-0.68904 -10.08961,-6.42162 -13.23087,-8.64468 -0.76872,-0.54402 -2.13779,-1.36177 -3.35,-2.00097 -2.6397,-1.3919 -8.93422,-5.00262 -11.25,-6.45331 -1.09174,-0.6839 -2.52794,-1.47033 -3.65,-1.99865 -4.83926,-2.27855 -8.47129,-4.09422 -11.96206,-5.97989 -1.53337,-0.8283 -3.20499,-1.66648 -3.71472,-1.86261 -2.32434,-0.89434 -10.17919,-4.32121 -13.07322,-5.70352 -2.20964,-1.05541 -3.63328,-1.66936 -4.6,-1.98377 -3.22366,-1.04843 -11.53849,-4.29668 -15.7,-6.13332 -4.7834,-2.1111 -4.50661,-1.97742 -8.61823,-4.16231 -1.69497,-0.90069 -3.12677,-1.65645 -3.18177,-1.67947 -0.0809,-0.0338 -5.37484,-3.5195 -5.96378,-3.92668 -0.0901,-0.0623 -0.9698,-0.83324 -1.95493,-1.71324 -0.98513,-0.88 -1.95344,-1.74116 -2.15181,-1.91368 -0.19836,-0.17252 -1.01448,-1.18502 -1.81361,-2.25 l -1.45295,-1.93632 -0.75646,-1.99283 -0.75646,-1.99284 v -1.89629 -1.89629 l 0.76298,-1.99275 0.76298,-1.99275 1.44292,-1.91472 c 1.41337,-1.87551 1.48852,-1.95504 3.66989,-3.88351 2.05618,-1.81779 2.45307,-2.11779 5.17523,-3.91178 2.41504,-1.59159 3.58921,-2.28336 6.49213,-3.82483 1.94913,-1.03501 3.61137,-1.91876 3.69387,-1.96389 0.0825,-0.0451 2.09143,-0.9357 4.4643,-1.97904 4.2485,-1.86806 11.99022,-4.89686 15.8857,-6.21499 1.2122,-0.41017 2.54647,-0.98218 4.65,-1.99345 2.60719,-1.25341 11.25136,-5.02361 13.15791,-5.73888 0.38935,-0.14607 2.00935,-0.96807 3.6,-1.82665 2.72998,-1.47357 9.40256,-4.81403 11.59209,-5.80329 1.6912,-0.76411 2.09956,-0.98725 4.33572,-2.36916 1.9388,-1.19815 7.613,-4.48931 9.16428,-5.31549 0.33,-0.17575 1.3425,-0.71389 2.25,-1.19587 0.9075,-0.48198 2.09665,-1.19681 2.64256,-1.58851 0.54592,-0.3917 1.96342,-1.36544 3.15,-2.16385 1.18659,-0.79841 2.56244,-1.72544 3.05744,-2.06007 0.68286,-0.46163 5.80211,-3.70462 7.41299,-4.69606 0.11715,-0.0721 1.21965,-0.93279 2.45,-1.91266 2.77746,-2.21201 6.45981,-4.99535 9.30005,-7.02955 1.70593,-1.2218 2.63772,-1.98494 4.40057,-3.60409 2.76191,-2.53678 6.68116,-5.98358 8.93673,-7.85944 1.34582,-1.11926 2.15746,-1.91036 3.89867,-3.8 2.56946,-2.78849 4.80021,-5.1037 7.59876,-7.88647 1.68638,-1.67687 2.26872,-2.33929 3.60434,-4.1 3.02051,-3.98185 7.09226,-9.01817 8.08478,-10.00001 0.33358,-0.33 0.52925,-0.47783 0.43482,-0.32852 -0.0944,0.14932 -0.17171,0.3205 -0.17171,0.3804 0,0.0599 -0.62327,1.17571 -1.38504,2.47956 -1.41671,2.42484 -1.71496,2.95941 -1.71496,3.0738 0,0.0358 0.50625,-0.40345 1.125,-0.97621 2.67542,-2.47654 8.24827,-7.29063 12.32864,-10.65007 4.34951,-3.58103 11.77083,-9.42896 11.96583,-9.42896 0.0443,0 0.0805,0.045 0.0805,0.1 0,0.055 -0.0429,0.1 -0.0954,0.1 -0.0912,0 -10.10282,14.99057 -10.22604,15.3117 -0.0327,0.0853 -1.35757,1.00477 -2.94405,2.04317 -5.07056,3.31885 -10.38247,6.96234 -14.77164,10.132 l -1.88714,1.36282 -1.74339,3.48566 -1.74338,3.48567 0.58053,-0.32637 c 0.31929,-0.1795 0.62553,-0.35947 0.68053,-0.39993 0.12181,-0.0896 7.17882,-4.10045 7.95,-4.51836 0.3025,-0.16392 1.95758,-1.06434 3.67794,-2.00092 1.72037,-0.93658 3.15432,-1.67651 3.18654,-1.64428 0.0322,0.0322 -0.0569,0.16215 -0.1981,0.28872 -0.36055,0.32323 -8.96239,11.30568 -8.91503,11.38232 0.0213,0.0345 -1.83775,0.92275 -4.13128,1.97385 -2.29354,1.05111 -4.67467,2.15025 -5.2914,2.44253 l -1.12133,0.53143 -0.61912,1.4 c -0.79156,1.78994 -2.47809,5.85 -2.43006,5.85 0.0201,0 0.36406,-0.12996 0.76424,-0.28881 1.39272,-0.5528 11.28466,-4.21119 11.38668,-4.21119 0.0565,0 0.0771,0.0414 0.0459,0.092 -0.0632,0.10226 -0.45495,6.32563 -0.45495,7.22747 v 0.57194 l -0.975,0.29819 c -0.53625,0.164 -3.7595,1.13373 -7.16277,2.15496 -3.40328,1.02122 -6.30021,1.91272 -6.43764,1.98111 -0.28027,0.13947 -0.34045,0.29347 -1.83823,4.70417 -0.50051,1.47391 -0.8875,2.70236 -0.85998,2.72988 0.0275,0.0275 0.48311,-0.0599 1.01242,-0.19434 0.52931,-0.1344 0.9849,-0.20794 1.01241,-0.16342 0.0275,0.0445 0.0102,0.0961 -0.0384,0.1145 -0.11277,0.0428 -1.62471,7.43609 -1.55685,7.61294 0.0377,0.0981 -0.32762,0.20862 -1.42548,0.43113 l -1.47612,0.29918 -0.22402,0.79514 c -1.15227,4.08979 -2.74649,11.0062 -3.67533,15.94515 -2.2092,11.74709 -3.25534,22.94812 -3.25475,34.84859 7.1e-4,14.40757 1.49032,27.59651 4.76075,42.15141 0.67718,3.01374 2.26546,9.32134 2.3858,9.47477 0.0208,0.0265 2.81065,0.62523 2.91338,0.62523 0.0337,0 0.0367,0.0641 0.007,0.14238 -0.0501,0.13043 1.33287,7.18034 1.48741,7.58262 0.0887,0.23078 -0.0185,0.22387 -1.07917,-0.0696 -0.48125,-0.13314 -0.875,-0.20833 -0.875,-0.16709 0,0.0971 1.78243,5.39436 2.19927,6.53612 l 0.31926,0.87448 1.21574,0.38401 c 0.66865,0.21121 3.97734,1.21173 7.35263,2.22337 3.3753,1.01164 6.14902,1.88532 6.16384,1.94151 0.0148,0.0562 0.10373,1.56466 0.1976,3.35216 0.0939,1.7875 0.20621,3.52 0.24965,3.85 0.0434,0.33 0.0674,0.61298 0.0533,0.62884 -0.0257,0.0289 -9.9274,-3.63306 -11.32988,-4.19019 -0.41072,-0.16315 -0.77097,-0.27244 -0.80055,-0.24286 -0.0523,0.0522 0.77614,2.08141 2.22662,5.45421 l 0.70958,1.65 0.89646,0.44664 c 0.49305,0.24566 2.86748,1.35133 5.27651,2.45704 3.3984,1.55983 4.40855,2.06485 4.50722,2.25336 0.18872,0.36054 8.64706,11.11498 8.89617,11.31112 0.11746,0.0925 0.18611,0.19562 0.15255,0.22918 -0.0336,0.0336 -1.00039,-0.45295 -2.14851,-1.08114 -1.14811,-0.62819 -2.82998,-1.54494 -3.73748,-2.03721 -1.92333,-1.04331 -8.0785,-4.52383 -9.26389,-5.23838 -0.44807,-0.26979 -0.84258,-0.49057 -0.87713,-0.49057 -0.0668,0 2.99575,6.13245 3.32803,6.66405 0.22415,0.3586 1.00953,0.95414 4.66256,3.53549 2.26156,1.5981 7.72256,5.34481 9.35,6.4149 0.3025,0.1989 1.6975,1.11326 3.1,2.03192 1.4025,0.91866 2.57913,1.74798 2.61474,1.84294 0.10786,0.28766 9.93431,15.05034 10.11616,15.19794 0.17372,0.141 0.22748,0.31676 0.0941,0.30762 -0.0412,-0.003 -1.1775,-0.86252 -2.525,-1.91041 z m -35.26518,-33.35945 c -0.10165,-0.15125 -1.02693,-1.535 -2.05618,-3.075 l -1.87136,-2.8 -0.97864,-0.59027 c -0.53825,-0.32465 -1.74364,-1.08609 -2.67864,-1.69208 -0.935,-0.60599 -2.0825,-1.34891 -2.55,-1.65095 -0.4675,-0.30203 -0.7825,-0.46355 -0.7,-0.35893 0.0825,0.10462 0.78346,0.93317 1.55768,1.84122 2.87847,3.37604 3.14749,3.63886 6.35024,6.20405 1.64599,1.31833 3.01949,2.39696 3.05222,2.39696 0.0327,0 -0.0237,-0.12375 -0.12532,-0.275 z m -8.44629,-13.24643 c -0.0652,-0.12179 -0.37381,-0.65054 -0.68585,-1.175 -0.31204,-0.52447 -1.09902,-1.91189 -1.74886,-3.08316 -0.84412,-1.52147 -1.25609,-2.16755 -1.44267,-2.2625 -0.14363,-0.0731 -1.90365,-0.81089 -3.91115,-1.63954 -2.0075,-0.82865 -3.91551,-1.6242 -4.24003,-1.76789 l -0.59003,-0.26125 0.18294,0.28038 c 0.30402,0.46598 2.5219,3.50341 3.45425,4.73067 l 0.87387,1.15028 1.5845,0.84672 c 1.43223,0.76535 6.54367,3.39331 6.61302,3.39998 0.0157,0.002 -0.0248,-0.0969 -0.09,-0.21869 z m -19.05712,-11.10596 c -1.08978,-1.17007 -2.21248,-2.38302 -2.49489,-2.69546 -0.50067,-0.55389 -0.60049,-0.6084 -4,-2.18423 -1.91759,-0.88888 -3.71152,-1.72801 -3.98652,-1.86473 -0.6605,-0.32837 -0.6466,-0.31524 2.45,2.31417 2.38721,2.02704 2.8285,2.35689 4.45,3.32628 2.29226,1.37039 5.47363,3.23136 5.52409,3.23136 0.0213,0 -0.85291,-0.95733 -1.94268,-2.12739 z m 11.32853,-3.39761 c -0.18426,-0.39875 -0.63236,-1.36151 -0.99578,-2.13946 -0.36342,-0.77795 -0.92278,-2.01545 -1.24303,-2.75 l -0.58228,-1.33554 -1.04442,-0.2688 c -0.57444,-0.14784 -2.9289,-0.78909 -5.23215,-1.425 -2.30324,-0.63591 -4.20488,-1.1562 -4.22585,-1.1562 -0.073,0 1.84868,3.27759 3.61319,6.16257 0.19163,0.31332 0.39373,0.39231 5.05,1.97385 2.66771,0.90611 4.88299,1.65109 4.92286,1.65552 0.0399,0.004 -0.0783,-0.31819 -0.26254,-0.71694 z m -21.38959,-8.4 c -0.89333,-1.16875 -1.8897,-2.49584 -2.21415,-2.94909 l -0.58992,-0.82409 -0.80814,-0.24416 c -0.44448,-0.13429 -2.40564,-0.71783 -4.35814,-1.29676 -1.9525,-0.57892 -3.81365,-1.14372 -4.13588,-1.2551 -0.52916,-0.18291 -0.57316,-0.18573 -0.45445,-0.0292 0.20703,0.27308 1.78539,1.92682 3.51291,3.68068 l 1.58318,1.60732 2.82212,1.0897 c 3.55154,1.37135 6.10071,2.33469 6.19442,2.34088 0.0398,0.003 -0.65861,-0.95147 -1.55195,-2.12022 z m -17.52535,-5.45636 c -0.0522,-0.0448 -0.34198,-0.281 -0.64384,-0.525 -0.30186,-0.244 -1.53109,-1.27016 -2.73162,-2.28034 l -2.1828,-1.8367 -4.25922,-1.48911 c -2.34258,-0.81902 -4.27753,-1.47081 -4.29991,-1.44843 -0.0471,0.0471 3.40826,2.38725 5.01473,3.39612 0.9747,0.61212 4.84521,2.43613 8.15766,3.84436 1.04126,0.44267 1.08374,0.45792 0.945,0.3391 z m 32.62887,-1.04364 c -0.73462,-2.04127 -2.55425,-7.59231 -3.10591,-9.475 -5.25819,-17.94496 -6.84245,-35.89879 -4.76058,-53.95 1.19693,-10.37816 3.80948,-21.43213 7.4685,-31.6 0.43544,-1.21 0.78076,-2.21448 0.7674,-2.23218 -0.039,-0.0517 -10.2866,2.11778 -11.05507,2.3404 -0.15583,0.0452 -0.49662,0.7199 -1.66252,3.29178 -5.41388,11.94255 -8.58894,23.818 -9.57159,35.8 -0.94603,11.53555 0.26671,23.40735 3.58048,35.05 1.64003,5.76209 4.11195,12.32807 6.58831,17.5 0.32918,0.6875 0.66247,1.39785 0.74064,1.57855 0.0782,0.1807 0.2421,0.36607 0.36429,0.41193 0.25981,0.0975 10.49004,2.33297 10.98655,2.40073 0.0354,0.005 -0.11782,-0.49746 -0.3405,-1.11621 z m -22.47695,-4.08075 c -0.0606,-0.11316 -0.4962,-0.84441 -0.9681,-1.625 -0.47189,-0.78059 -0.98082,-1.64425 -1.13097,-1.91925 -0.15014,-0.275 -0.69119,-1.265 -1.20232,-2.2 -1.74924,-3.19979 -3.6618,-7.34039 -5.01168,-10.85 -7.03858,-18.29996 -7.0556,-36.42802 -0.0514,-54.7 1.91265,-4.98953 4.64403,-10.54628 7.54516,-15.34992 0.49822,-0.82496 0.8897,-1.51608 0.86995,-1.53583 -0.0197,-0.0197 -2.41228,0.53475 -5.31674,1.23222 -5.13396,1.23287 -5.28869,1.27697 -5.56316,1.58583 -0.69965,0.78734 -3.66836,4.91683 -4.9372,6.8677 -6.80783,10.46713 -10.40334,20.35085 -11.17609,30.72208 -0.9563,12.83455 2.96479,25.98107 11.59575,38.87792 1.1825,1.76696 3.83797,5.43384 4.62023,6.37998 0.0714,0.0863 2.26914,0.66643 5.4,1.42532 2.9038,0.70386 5.31496,1.2831 5.35815,1.28722 0.0432,0.004 0.029,-0.0851 -0.0316,-0.19827 z m -21.88499,-5.36925 c -0.0523,-0.0962 -0.49264,-0.56382 -0.97852,-1.03903 -2.87991,-2.81674 -6.76718,-7.62424 -9.93023,-12.281 -0.66732,-0.98246 -2.4157,-4.10519 -3.30556,-5.90396 -1.98069,-4.00381 -3.2928,-7.79781 -4.08124,-11.80101 -0.50443,-2.56118 -0.7197,-4.83441 -0.7197,-7.6 0,-2.76126 0.21488,-5.03496 0.71824,-7.6 1.80121,-9.17864 6.66662,-18.18083 14.72241,-27.24004 0.98303,-1.10548 2.22053,-2.45327 2.75,-2.9951 0.52947,-0.54183 0.87267,-0.95902 0.76267,-0.92708 -0.11,0.0319 -1.8875,0.50509 -3.95,1.05146 -4.03636,1.06924 -5.76744,1.56343 -5.94073,1.69594 -1.17266,0.89671 -4.49032,3.75283 -6.08062,5.2347 -10.9004,10.15719 -16.47865,20.5691 -16.47865,30.75773 0,7.65046 3.13236,15.43318 9.29758,23.10094 2.92891,3.64272 7.0911,7.80678 11.28364,11.28872 2.32009,1.92686 1.57432,1.61278 7.81878,3.2928 2.2825,0.61408 4.16283,1.12178 4.17852,1.12822 0.0157,0.006 -0.0143,-0.067 -0.0666,-0.16329 z m -20.82026,-5.86028 c -0.0229,-0.0194 -1.23417,-0.83841 -2.69167,-1.82002 -2.25581,-1.51925 -6.68101,-4.80229 -7.91892,-5.87501 -3.88787,-3.36905 -6.95768,-6.56117 -9.13671,-9.50074 -1.65712,-2.23551 -1.32657,-1.72512 -2.57042,-3.96896 -1.446,-2.60852 -2.33231,-5.01172 -2.82394,-7.65701 -0.32862,-1.76826 -0.35001,-2.01075 -0.35001,-3.96892 0,-1.96273 0.0208,-2.19686 0.3526,-3.97418 0.97185,-5.20532 3.84422,-10.33263 8.71971,-15.56503 3.51391,-3.77116 8.35273,-7.79454 13.75879,-11.44019 1.4196,-0.95733 2.54359,-1.7531 2.49775,-1.76838 -0.0458,-0.0153 -2.01734,0.61874 -4.3811,1.40893 -4.8714,1.62848 -5.07235,1.71762 -10.04775,4.45717 -6.73825,3.71022 -12.40114,7.68205 -16.33225,11.45508 -1.65147,1.58507 -2.23788,2.23074 -3.51427,3.86942 -1.37828,1.76951 -1.63266,2.16087 -2.53484,3.9 -0.977,1.88336 -1.01588,1.98419 -1.51072,3.91716 l -0.50792,1.98403 2e-5,1.76597 c 10e-6,1.6952 0.0143,1.82206 0.3561,3.16596 0.60768,2.38912 0.73082,2.71822 1.73688,4.64156 1.58423,3.02866 3.56527,5.4207 7.557,9.12481 1.41743,1.3153 5.48672,4.30838 8.41176,6.18708 2.91589,1.87284 8.82428,5.22987 11.13824,6.32853 1.23776,0.58769 10.12027,3.61098 9.79167,3.33274 z m 22.65076,-75.75742 c 2.34822,-0.82098 4.34555,-1.55211 4.43853,-1.62471 0.093,-0.0726 1.12962,-0.94215 2.30365,-1.9323 1.17404,-0.99016 2.38563,-1.99154 2.69243,-2.22529 0.3068,-0.23375 0.53735,-0.425 0.51235,-0.425 -0.0484,0 -1.60246,0.63971 -1.93939,0.7983 -0.11,0.0518 -1.325,0.59623 -2.7,1.20991 -3.82694,1.70799 -3.55736,1.55853 -7.25,4.01969 -2.22125,1.48047 -2.49441,1.6721 -2.38353,1.6721 0.0311,0 1.97774,-0.67171 4.32596,-1.4927 z m 16.09881,-5.29528 c 0.66482,-0.21339 2.85827,-0.87304 4.87433,-1.4659 l 3.66557,-1.07792 0.49409,-0.7091 c 0.58655,-0.84181 3.45254,-4.61147 3.75129,-4.9341 0.36592,-0.39518 0.58461,-0.46964 -6.27652,2.13716 l -2.6,0.98784 -1.43562,1.45 c -1.90527,1.92436 -3.85612,4 -3.7595,4 0.0427,0 0.62154,-0.17459 1.28636,-0.38798 z m 25.00876,-7.17174 c 2.145,-0.58396 4.125,-1.12569 4.4,-1.20384 l 0.5,-0.14211 0.9179,-2.07216 c 0.50484,-1.13969 1.21173,-2.69092 1.57087,-3.44717 0.35914,-0.75625 0.61938,-1.375 0.57833,-1.375 -0.041,0 -2.25544,0.7359 -4.92087,1.63533 l -4.84623,1.63533 -1.6,2.6553 c -0.88,1.46042 -1.74789,2.92696 -1.92865,3.25899 l -0.32864,0.60369 0.87864,-0.24331 c 0.48326,-0.13382 2.63365,-0.7211 4.77865,-1.30505 z m -9.53005,-6.3408 2.86994,-1.32751 2.08006,-2.25434 c 1.14403,-1.23989 2.28176,-2.44858 2.5283,-2.68598 0.766,-0.73763 0.84275,-0.77702 -3.59825,1.84707 -1.6225,0.9587 -3.1075,1.85958 -3.3,2.00194 -0.53157,0.39313 -5.33738,4.47339 -5.50088,4.6704 -0.0787,0.0949 0.3505,-0.0742 0.95386,-0.37579 0.60336,-0.30155 2.3885,-1.14565 3.96697,-1.87579 z m 13.36949,-5.97283 c 0.30831,-0.13789 2.22438,-0.93539 4.25793,-1.77221 l 3.69737,-1.52151 1.3612,-2.44146 c 0.74866,-1.34281 1.58931,-2.82397 1.86811,-3.29147 0.27881,-0.4675 0.49244,-0.86501 0.47474,-0.88336 -0.0324,-0.0336 -6.20758,3.13065 -7.48389,3.83483 -0.47992,0.26478 -0.81696,0.54577 -1.12541,0.93826 -0.47101,0.59933 -2.66658,3.58166 -3.52921,4.79388 -0.57567,0.80896 -0.57064,0.81256 0.47916,0.34304 z m 12.56056,-14.89219 c 0.935,-0.60483 2.13169,-1.36258 2.6593,-1.6839 0.95479,-0.58146 0.96279,-0.58965 1.69927,-1.74238 0.40698,-0.637 1.31405,-1.99921 2.0157,-3.02714 0.70165,-1.02793 1.27573,-1.89443 1.27573,-1.92555 0,-0.0644 -2.04035,1.53982 -4.54307,3.57192 -1.13162,0.91882 -2.01837,1.73954 -2.66345,2.4651 -1.39773,1.57212 -3.73742,4.3118 -3.77935,4.42546 -0.0197,0.0535 0.34028,-0.14601 0.8,-0.4433 0.45973,-0.29729 1.60087,-1.03538 2.53587,-1.64021 z"
       id="path1" />
  </g>
</svg>
